<svg width="185" height="46" viewBox="0 0 185 46" fill="none" xmlns="../../external.html?link=http://www.w3.org/2000/svg">
<path d="M22.9294 8.8592C22.7071 8.8592 22.4013 8.77582 22.0122 8.60906C21.6231 8.4145 21.3035 8.34502 21.0533 8.4006L16.7592 9.56795V31.4974C16.7592 32.3034 16.9537 33.1789 17.3428 34.1239C17.454 34.4018 17.4262 34.9299 17.2595 35.7082C17.0927 36.5698 16.8287 37.1118 16.4673 37.3341C16.4117 37.3619 16.2728 37.3758 16.0504 37.3758C15.1332 37.3758 13.8547 37.1951 12.2149 36.8338C10.3805 36.4169 9.2965 36.0139 8.96297 35.6248C8.57385 35.1245 8.58775 34.4574 9.00466 33.6236C9.36598 32.901 9.54664 32.3729 9.54664 32.0394V11.4024L6.58658 12.1528C6.44762 12.1806 6.21137 12.3057 5.87784 12.528C5.57211 12.7226 5.30806 12.792 5.08571 12.7365C4.44645 12.5697 3.57094 11.7498 2.45918 10.2767C1.34742 8.77582 0.86103 7.76134 1 7.23326C1.22235 6.594 1.87551 6.1076 2.95947 5.77408C3.23741 5.69069 3.59873 5.6768 4.04344 5.73238C4.48814 5.78797 4.83557 5.78797 5.08571 5.73238L19.5942 2.02189C19.7331 1.9941 20.1361 1.82733 20.8032 1.5216C21.2479 1.32704 21.6509 1.25756 22.0122 1.31315C22.7905 1.42432 23.3185 1.73005 23.5965 2.23034C23.791 2.56387 23.9995 3.18924 24.2218 4.10644C24.4998 5.1904 24.6388 6.1354 24.6388 6.94142C24.6388 7.55289 24.5554 8.02539 24.3886 8.35891C24.2496 8.66465 23.7632 8.83141 22.9294 8.8592ZM46.2125 35.3746C46.0735 36.1807 45.7678 36.6948 45.2953 36.9172C45.1008 37.0006 44.7533 37.0423 44.253 37.0423C43.308 37.0423 42.1824 36.8894 40.8761 36.5837C39.5698 36.3057 38.7776 36.0278 38.4997 35.7499C38.3885 35.6109 38.3329 35.4441 38.3329 35.2496C38.3329 35.0272 38.458 34.6103 38.7081 33.9988C38.8749 33.7765 39.0556 33.5402 39.2501 33.2901C39.4447 33.0121 39.542 32.6647 39.542 32.2478C39.5976 21.297 39.5142 15.7799 39.2918 15.6965C38.8749 15.5575 37.916 16.572 36.4151 18.74C34.8031 21.0469 33.9971 22.8952 33.9971 24.2848V33.5402C34.4418 33.9849 34.5946 34.5686 34.4557 35.2913C34.2889 36.1529 33.8442 36.7365 33.1216 37.0423C33.0104 37.0979 32.8436 37.1257 32.6213 37.1257C31.8708 37.1257 30.773 36.945 29.3277 36.5837C27.8824 36.2501 27.0903 36 26.9513 35.8332C26.6456 35.3885 26.6178 34.8743 26.8679 34.2907C26.8957 34.2073 27.0208 34.0683 27.2431 33.8738C27.4933 33.6514 27.6184 33.443 27.6184 33.2484V3.77291C27.6184 3.55056 27.5072 3.25872 27.2848 2.8974C27.0625 2.53608 26.993 2.23035 27.0764 1.9802C27.2431 1.39653 27.6739 1.02131 28.3688 0.854544C28.8135 0.743368 29.8558 0.896235 31.4956 1.31315C33.2744 1.75785 34.2472 2.21645 34.414 2.68895C34.5252 2.99468 34.4835 3.45328 34.2889 4.06475C34.0943 4.67621 33.9971 5.42665 33.9971 6.31606V14.1123C35.5535 12.1389 37.0544 11.1522 38.4997 11.1522C39.4447 11.1522 40.6676 11.4857 42.1685 12.1528C43.6694 12.792 44.531 13.3757 44.7533 13.9038C45.5316 15.6826 45.9207 22.2559 45.9207 33.6236C46.1986 34.2907 46.2959 34.8743 46.2125 35.3746ZM66.602 28.9959C66.8521 29.4128 66.3101 30.6497 64.976 32.7064C63.5307 34.9021 62.1133 36.3891 60.7236 37.1673C60.5568 37.2507 60.3067 37.2924 59.9731 37.2924C58.8892 37.2924 57.4717 36.9589 55.7206 36.2918C53.8585 35.6248 52.6355 34.9021 52.0518 34.1239C50.4398 32.0394 49.6338 29.1488 49.6338 25.4522C49.6338 21.9502 50.3425 18.865 51.76 16.1968C53.2887 13.2784 55.2343 11.7915 57.5967 11.7359C58.4584 11.7081 59.5006 11.9304 60.7236 12.4029C62.2244 12.9866 63.4613 13.7787 64.4341 14.7793C64.6842 15.0295 64.9204 15.7799 65.1428 17.0306C65.4207 18.3647 65.5597 19.6711 65.5597 20.9496C65.5597 22.8396 65.254 24.1459 64.6425 24.8685C61.7797 25.7857 58.8614 26.2999 55.8874 26.4111C55.8318 27.773 55.9986 29.2044 56.3877 30.7053C56.7768 32.2061 57.1798 32.9705 57.5967 32.9983C58.1526 33.026 58.8197 32.5674 59.5979 31.6225C60.2928 30.8164 60.7236 30.1355 60.8903 29.5796C61.0849 28.7458 61.3489 27.8842 61.6825 26.9948C62.1272 26.9392 63.0027 27.1615 64.309 27.6618C65.6153 28.1621 66.3796 28.6068 66.602 28.9959ZM59.181 16.2385C58.7085 16.1829 58.0414 16.9333 57.1798 18.4898C56.346 20.0463 55.8596 21.5332 55.7206 22.9507C56.9714 22.8952 57.972 22.5894 58.7224 22.0335C59.1671 21.7 59.3895 20.3103 59.3895 17.8644C59.3895 16.8361 59.32 16.2941 59.181 16.2385ZM89.4151 8.8592C89.1927 8.8592 88.887 8.77582 88.4979 8.60906C88.1087 8.4145 87.7891 8.34502 87.539 8.4006L83.2448 9.56795V31.4974C83.2448 32.3034 83.4394 33.1789 83.8285 34.1239C83.9397 34.4018 83.9119 34.9299 83.7451 35.7082C83.5783 36.5698 83.3143 37.1118 82.953 37.3341C82.8974 37.3619 82.7584 37.3758 82.5361 37.3758C81.6189 37.3758 80.3403 37.1951 78.7005 36.8338C76.8661 36.4169 75.7821 36.0139 75.4486 35.6248C75.0595 35.1245 75.0734 34.4574 75.4903 33.6236C75.8516 32.901 76.0323 32.3729 76.0323 32.0394V11.4024L73.0722 12.1528C72.9332 12.1806 72.697 12.3057 72.3635 12.528C72.0577 12.7226 71.7937 12.792 71.5713 12.7365C70.9321 12.5697 70.0566 11.7498 68.9448 10.2767C67.8331 8.77582 67.3467 7.76134 67.4856 7.23326C67.708 6.594 68.3611 6.1076 69.4451 5.77408C69.723 5.69069 70.0844 5.6768 70.5291 5.73238C70.9738 5.78797 71.3212 5.78797 71.5713 5.73238L86.0798 2.02189C86.2188 1.9941 86.6218 1.82733 87.2888 1.5216C87.7335 1.32704 88.1365 1.25756 88.4979 1.31315C89.2761 1.42432 89.8042 1.73005 90.0821 2.23034C90.2767 2.56387 90.4851 3.18924 90.7075 4.10644C90.9854 5.1904 91.1244 6.1354 91.1244 6.94142C91.1244 7.55289 91.041 8.02539 90.8742 8.35891C90.7353 8.66465 90.2489 8.83141 89.4151 8.8592ZM117.445 4.69011C116 8.38671 114.36 14.0011 112.526 21.5332C110.858 28.3428 110.038 32.2061 110.066 33.1233C110.038 33.2067 110.066 33.846 110.149 35.0411C110.205 35.6804 110.107 36.264 109.857 36.7921C109.579 37.4592 109.204 37.8344 108.732 37.9178C107.926 38.0845 106.3 37.7788 103.854 37.0006C101.436 36.2224 100.046 35.5414 99.6847 34.9577C99.5179 34.6798 99.4207 34.3185 99.3929 33.8738C99.3651 33.3179 99.3234 32.9427 99.2678 32.7481C96.0993 22.7145 94.1954 13.7231 93.5561 5.77408C93.5561 5.63511 93.4867 5.34327 93.3477 4.89856C93.2643 4.56504 93.2365 4.2732 93.2643 4.02306C93.4033 3.05027 93.8063 2.4527 94.4733 2.23034C94.8069 2.11917 95.9742 2.38321 97.9754 3.02247C100.088 3.68953 101.255 4.2593 101.477 4.7318C101.589 5.00974 101.589 5.59342 101.477 6.48282C101.45 6.64959 101.352 6.89973 101.186 7.23326C101.019 7.53899 100.949 7.80303 100.977 8.02539C101.394 10.9438 101.783 13.5147 102.144 15.7382C103.034 21.0746 103.729 24.2432 104.229 25.2437C104.702 22.6589 105.535 19.3514 106.73 15.3213C107.926 11.2912 108.759 7.92811 109.232 5.23209C109.26 4.70401 109.385 3.99526 109.607 3.10586C109.913 2.4388 110.371 2.00799 110.983 1.81344C111.428 1.67447 112.47 1.91071 114.11 2.52218C115.889 3.21703 117 3.93967 117.445 4.69011ZM140.711 34.2907C140.683 34.5408 140.627 35.1384 140.544 36.0834C140.516 36.5837 140.405 36.9589 140.21 37.209C140.071 37.2924 139.835 37.3341 139.501 37.3341C138.584 37.3341 137.445 37.0979 136.083 36.6254C134.61 36.1807 133.609 35.6526 133.081 35.0411C132.859 34.791 132.636 33.9571 132.414 32.5397C132.108 30.6775 131.761 29.1349 131.372 27.912C130.316 28.0509 128.773 28.44 126.744 29.0793C124.715 29.6908 123.395 30.205 122.783 30.6219C122.367 31.817 121.811 33.2901 121.116 35.0411C121.032 35.4302 120.935 35.7915 120.824 36.1251C120.741 36.4864 120.504 36.7782 120.115 37.0006C120.032 37.0562 119.907 37.084 119.74 37.084C119.073 37.084 117.947 36.7365 116.363 36.0417C114.807 35.3468 114.001 34.8882 113.945 34.6659C113.834 34.2768 114.098 33.3179 114.737 31.7892C115.626 29.5657 116.141 28.2038 116.28 27.7035C115.696 27.1198 115.404 26.5362 115.404 25.9525C115.404 25.8135 115.418 25.6606 115.446 25.4939C115.501 25.1604 116.349 24.5628 117.989 23.7012L123.367 5.31547C123.45 4.98195 123.464 4.37048 123.409 3.48107C123.353 2.73064 123.437 2.25814 123.659 2.06358C123.798 1.92461 124.131 1.85513 124.66 1.85513C125.966 1.85513 127.828 2.18865 130.246 2.85571C132.664 3.52276 134.109 4.12033 134.582 4.64842C134.749 7.73355 135.374 12.3612 136.458 18.5315C137.848 26.147 139.265 31.4001 140.711 34.2907ZM129.829 21.6166C129.468 19.8656 129.246 18.7122 129.162 18.1563C128.856 16.2941 128.648 14.3624 128.537 12.3612C127.981 13.7231 127.328 15.6131 126.577 18.0312C125.771 20.5605 125.34 22.1447 125.285 22.784C125.813 22.5616 127.328 22.1725 129.829 21.6166ZM154.35 36.8338C154.072 36.9728 153.808 37.0423 153.558 37.0423C152.835 37.0423 151.626 36.1946 149.931 34.4991V42.5455C149.959 42.7678 150.084 43.1569 150.306 43.7128C150.528 44.2965 150.639 44.7273 150.639 45.0052C150.639 45.5889 150.25 45.8808 149.472 45.8808C148.777 45.8808 147.763 45.6862 146.429 45.2971C145.623 45.0469 144.817 44.7829 144.011 44.505C143.316 44.3104 142.913 43.8796 142.802 43.2125C142.746 42.9346 142.843 42.3926 143.093 41.5866C143.371 40.7806 143.51 40.322 143.51 40.2108V13.07C143.51 12.1528 143.441 11.5691 143.302 11.319C142.885 10.6241 142.76 10.1377 142.927 9.85979C143.038 9.63743 143.399 9.52626 144.011 9.52626C144.65 9.52626 145.609 9.65133 146.887 9.90148C148.36 10.2072 149.153 10.3601 149.264 10.3601C149.736 10.4157 150.098 10.7492 150.348 11.3607C150.375 11.444 150.389 11.6386 150.389 11.9443C150.389 13.0839 150.223 14.7793 149.889 17.0306C150.556 15.6965 151.223 14.3763 151.89 13.07C152.78 11.3746 153.6 10.5963 154.35 10.7353C159.798 11.8748 162.521 15.2657 162.521 20.9079C162.521 24.1042 161.66 27.3283 159.937 30.5802C158.241 33.8043 156.379 35.8888 154.35 36.8338ZM153.433 17.4475C152.432 17.3364 151.307 22.3532 150.056 32.498C151.612 31.8031 153.016 30.2744 154.267 27.912C155.545 25.5495 156.184 23.3538 156.184 21.3248C156.184 18.9623 155.267 17.6699 153.433 17.4475ZM176.458 36.8338C176.18 36.9728 175.916 37.0423 175.665 37.0423C174.943 37.0423 173.734 36.1946 172.038 34.4991V42.5455C172.066 42.7678 172.191 43.1569 172.414 43.7128C172.636 44.2965 172.747 44.7273 172.747 45.0052C172.747 45.5889 172.358 45.8808 171.58 45.8808C170.885 45.8808 169.87 45.6862 168.536 45.2971C167.73 45.0469 166.924 44.7829 166.118 44.505C165.423 44.3104 165.02 43.8796 164.909 43.2125C164.854 42.9346 164.951 42.3926 165.201 41.5866C165.479 40.7806 165.618 40.322 165.618 40.2108V13.07C165.618 12.1528 165.548 11.5691 165.409 11.319C164.993 10.6241 164.867 10.1377 165.034 9.85979C165.145 9.63743 165.507 9.52626 166.118 9.52626C166.757 9.52626 167.716 9.65133 168.995 9.90148C170.468 10.2072 171.26 10.3601 171.371 10.3601C171.844 10.4157 172.205 10.7492 172.455 11.3607C172.483 11.444 172.497 11.6386 172.497 11.9443C172.497 13.0839 172.33 14.7793 171.997 17.0306C172.664 15.6965 173.331 14.3763 173.998 13.07C174.887 11.3746 175.707 10.5963 176.458 10.7353C181.905 11.8748 184.629 15.2657 184.629 20.9079C184.629 24.1042 183.767 27.3283 182.044 30.5802C180.349 33.8043 178.487 35.8888 176.458 36.8338ZM175.54 17.4475C174.54 17.3364 173.414 22.3532 172.163 32.498C173.72 31.8031 175.123 30.2744 176.374 27.912C177.653 25.5495 178.292 23.3538 178.292 21.3248C178.292 18.9623 177.375 17.6699 175.54 17.4475Z" fill="#F5F5F5"/>
</svg>
